<?xml version="1.0" encoding="UTF-8" standalone="no"?> <svg xmlns:inkscape="http://www.inkscape.org/namespaces/inkscape" xmlns:sodipodi="http://sodipodi.sourceforge.net/DTD/sodipodi-0.dtd" xmlns="http://www.w3.org/2000/svg" xmlns:svg="http://www.w3.org/2000/svg" width="350.42615mm" height="431.14981mm" viewBox="0 0 350.42615 431.14981" version="1.1" id="svg1"><defs id="defs1"><clipPath id="clipPath2"><path d="M 0,2000 H 2000 V 0 H 0 Z" transform="translate(-1463.2368,-1066.1621)" id="path2"></path></clipPath><clipPath id="clipPath4"><path d="M 0,2000 H 2000 V 0 H 0 Z" transform="translate(-1463.2368,-1066.1621)" id="path4"></path></clipPath><clipPath id="clipPath6"><path d="M 0,2000 H 2000 V 0 H 0 Z" transform="translate(-1428.1416,-829.3203)" id="path6"></path></clipPath><clipPath id="clipPath8"><path d="M 0,2000 H 2000 V 0 H 0 Z" transform="translate(-996.86822,-1480.1414)" id="path8"></path></clipPath><clipPath id="clipPath10"><path d="M 0,2000 H 2000 V 0 H 0 Z" transform="translate(-896.0911,-756.04334)" id="path10"></path></clipPath><clipPath id="clipPath12"><path d="M 0,2000 H 2000 V 0 H 0 Z" transform="translate(0,2.5000001e-5)" id="path12"></path></clipPath><clipPath id="clipPath14"><path d="M 0,2000 H 2000 V 0 H 0 Z" transform="translate(0,2.5000001e-5)" id="path14"></path></clipPath><clipPath id="clipPath16"><path d="M 0,2000 H 2000 V 0 H 0 Z" transform="translate(0,2.5000001e-5)" id="path16"></path></clipPath><clipPath id="clipPath18"><path d="M 0,2000 H 2000 V 0 H 0 Z" transform="translate(0,2.5000001e-5)" id="path18"></path></clipPath><clipPath id="clipPath20"><path d="M 0,2000 H 2000 V 0 H 0 Z" transform="translate(-1463.2368,-1066.1621)" id="path20"></path></clipPath><clipPath id="clipPath22"><path d="M 0,2000 H 2000 V 0 H 0 Z" transform="translate(-792.57489,-1074)" id="path22"></path></clipPath><clipPath id="clipPath24"><path d="M 0,2000 H 2000 V 0 H 0 Z" transform="translate(-792.57474,-1249.0001)" id="path24"></path></clipPath><clipPath id="clipPath26"><path d="M 0,2000 H 2000 V 0 H 0 Z" transform="translate(-858.2617,-1113.7349)" id="path26"></path></clipPath><clipPath id="clipPath28"><path d="M 0,2000 H 2000 V 0 H 0 Z" transform="translate(-898.04102,-1211.0825)" id="path28"></path></clipPath><clipPath id="clipPath30"><path d="M 0,2000 H 2000 V 0 H 0 Z" transform="translate(-959.97362,-1156.6367)" id="path30"></path></clipPath><clipPath id="clipPath32"><path d="M 0,2000 H 2000 V 0 H 0 Z" transform="translate(-1093.3536,-1108.2744)" id="path32"></path></clipPath><clipPath id="clipPath34"><path d="M 0,2000 H 2000 V 0 H 0 Z" transform="translate(-1179.9316,-1213.7345)" id="path34"></path></clipPath><clipPath id="clipPath36"><path d="M 0,2000 H 2000 V 0 H 0 Z" transform="translate(-1238.5401,-498.79694)" id="path36"></path></clipPath><clipPath id="clipPath38"><path d="M 0,2000 H 2000 V 0 H 0 Z" transform="translate(-1269.79,-515.38874)" id="path38"></path></clipPath><clipPath id="clipPath40"><path d="M 0,2000 H 2000 V 0 H 0 Z" transform="translate(-1323.4219,-515.38874)" id="path40"></path></clipPath><clipPath id="clipPath42"><path d="M 0,2000 H 2000 V 0 H 0 Z" transform="translate(-1374.4189,-528.90719)" id="path42"></path></clipPath></defs><g id="layer1" transform="translate(70.379163,67.204169)"><path id="path1" d="m 0,0 c -1.304,1.076 -2.722,2.027 -4.228,2.786 -1.554,0.796 -3.085,1.622 -4.603,2.464 -0.456,0.253 -0.907,0.514 -1.361,0.771 -1.093,0.621 -2.177,1.253 -3.251,1.898 -0.466,0.28 -0.932,0.559 -1.395,0.844 -1.222,0.751 -2.431,1.517 -3.629,2.299 -0.246,0.161 -0.498,0.317 -0.743,0.479 -1.449,0.958 -2.879,1.94 -4.292,2.942 -0.316,0.225 -0.627,0.456 -0.942,0.683 -1.107,0.798 -2.204,1.607 -3.29,2.432 -0.389,0.296 -0.778,0.594 -1.165,0.893 -1.1,0.852 -2.189,1.717 -3.267,2.596 -0.267,0.218 -0.538,0.432 -0.804,0.651 -1.371,1.133 -2.727,2.284 -4.061,3.46 -0.061,0.054 -0.12,0.109 -0.18,0.162 -1.25,1.104 -2.481,2.23 -3.699,3.371 -0.276,0.259 -0.549,0.52 -0.823,0.78 -1.066,1.012 -2.121,2.037 -3.163,3.077 -0.221,0.22 -0.444,0.438 -0.663,0.66 -2.544,2.565 -5.018,5.211 -7.42,7.937 -0.135,0.154 -0.268,0.31 -0.403,0.463 -1.075,1.228 -2.136,2.471 -3.182,3.73 -0.16,0.191 -0.319,0.382 -0.478,0.574 -3.534,4.281 -6.911,8.737 -10.134,13.351 -0.102,0.146 -0.203,0.291 -0.304,0.437 -1.056,1.519 -2.098,3.052 -3.121,4.605 v 0 c -88.74,134.648 -55.894,393.127 -55.492,396.234 1.445,10.831 -5.039,21.155 -15.43,24.562 l -115.201,37.732 c -2.547,0.912 -6.042,1.965 -10.551,1.965 -0.267,0 -0.645,-0.014 -1.023,-0.026 -6.873,-0.122 -13.25,-3.504 -17.441,-8.781 -4.548,-5.541 -10.587,-10.969 -17.968,-16.133 -0.63,-0.444 -1.252,-0.926 -1.832,-1.446 -5.145,-4.444 -11.956,-8.284 -20.256,-11.374 -0.58,-0.214 -1.151,-0.456 -1.708,-0.721 -37.039,-17.404 -86.352,-26.979 -138.866,-26.979 -52.514,0 -101.826,9.575 -138.86,26.979 -0.563,0.265 -1.129,0.507 -1.714,0.721 -8.294,3.09 -15.106,6.93 -20.255,11.374 -0.58,0.52 -1.198,1.002 -1.833,1.446 -7.055,4.939 -12.874,10.121 -17.347,15.411 -4.081,5.649 -10.65,9.228 -17.767,9.489 -0.479,0.014 -0.976,0.04 -1.317,0.04 -4.504,0 -8.005,-1.053 -10.445,-1.925 l -115.308,-37.772 c -10.386,-3.407 -16.871,-13.731 -15.429,-24.562 0.483,-3.709 47.198,-371.319 -121.866,-457.793 -1.501,-0.759 -2.92,-1.71 -4.228,-2.786 -6.448,-5.397 -10.298,-13.895 -10.298,-22.738 v -465.75 -65.066 c 0,-57.216 46.549,-103.765 103.766,-103.765 h 317.781 c 21.518,0 41.021,8.78 55.121,22.944 14.102,-14.164 33.607,-22.944 55.125,-22.944 h 317.776 c 57.22,0 103.765,46.549 103.765,103.765 V -22.738 C 10.298,-13.895 6.448,-5.397 0,0" style="fill:#001f66;fill-opacity:1;fill-rule:nonzero;stroke:#ffffff;stroke-width:40;stroke-linecap:butt;stroke-linejoin:miter;stroke-miterlimit:10;stroke-dasharray:none;stroke-opacity:1" transform="matrix(0.35277776,0,0,-0.35277776,269.35852,125.00256)" clip-path="url(#clipPath2)"></path><path id="path3" d="m 0,0 c -1.304,1.076 -2.722,2.027 -4.228,2.786 -169.064,86.474 -122.345,454.084 -121.865,457.793 1.445,10.831 -5.039,21.155 -15.43,24.562 l -115.201,37.732 c -2.547,0.912 -6.042,1.965 -10.551,1.965 -0.267,0 -0.645,-0.014 -1.023,-0.026 -6.873,-0.122 -13.25,-3.504 -17.441,-8.781 -4.548,-5.541 -10.587,-10.969 -17.968,-16.133 -0.63,-0.444 -1.252,-0.926 -1.832,-1.446 -5.145,-4.444 -11.956,-8.284 -20.256,-11.374 -0.58,-0.214 -1.151,-0.456 -1.708,-0.721 -37.039,-17.404 -86.352,-26.979 -138.866,-26.979 -52.514,0 -101.826,9.575 -138.86,26.979 -0.563,0.265 -1.129,0.507 -1.714,0.721 -8.294,3.09 -15.106,6.93 -20.255,11.374 -0.58,0.52 -1.198,1.002 -1.833,1.446 -7.055,4.939 -12.874,10.121 -17.347,15.411 -4.081,5.649 -10.65,9.228 -17.767,9.489 -0.479,0.014 -0.976,0.04 -1.317,0.04 -4.504,0 -8.005,-1.053 -10.445,-1.925 l -115.308,-37.772 c -10.386,-3.407 -16.871,-13.731 -15.429,-24.562 0.483,-3.709 47.198,-371.319 -121.866,-457.793 -1.501,-0.759 -2.92,-1.71 -4.228,-2.786 -6.448,-5.397 -10.298,-13.895 -10.298,-22.738 v -530.816 c 0,-57.216 46.549,-103.765 103.766,-103.765 h 317.781 c 21.518,0 41.021,8.78 55.121,22.944 14.102,-14.164 33.607,-22.944 55.125,-22.944 h 317.776 c 57.22,0 103.765,46.549 103.765,103.765 V -22.738 C 10.298,-13.895 6.448,-5.397 0,0" style="fill:#001f66;fill-opacity:1;fill-rule:nonzero;stroke:none" transform="matrix(0.35277776,0,0,-0.35277776,269.35852,125.00256)" clip-path="url(#clipPath4)"></path><path id="path5" d="m 0,0 v -45.392 -87.554 -45.399 -138.367 c 0,-32.184 -26.183,-58.367 -58.372,-58.367 h -317.776 c -17.885,0 -32.429,14.539 -32.429,32.428 v 47.331 h -45.393 v -47.331 c 0,-17.889 -14.545,-32.428 -32.424,-32.428 h -317.781 c -32.184,0 -58.368,26.183 -58.368,58.367 v 138.367 45.399 87.554 V 0 204.807 c 164.27,96.392 145.981,400.022 138.115,479.783 l 81.004,26.563 139.54,-366.841 49.914,-131.224 V 54.68 h 45.393 v 158.396 l 189.446,498.051 81.012,-26.537 C -145.98,604.815 -164.274,301.199 0,204.807 Z" style="fill:#ff6600;fill-opacity:1;fill-rule:nonzero;stroke:none" transform="matrix(0.35277776,0,0,-0.35277776,256.97771,208.55507)" clip-path="url(#clipPath6)"></path><path id="path7" d="M 0,0 C 55.983,0 109.37,9.98 151.363,28.207 L 0.001,-369.718 -70.293,-184.926 -151.365,28.21 C -109.376,9.981 -55.987,0 0,0" style="fill:#ffa15d;fill-opacity:1;fill-rule:nonzero;stroke:none" transform="matrix(0.35277776,0,0,-0.35277776,104.83404,-21.040161)" clip-path="url(#clipPath8)"></path><path id="path9" d="m 0,0 c 19.835,19.834 32.12,47.219 32.12,77.418 0,60.399 -49.138,109.536 -109.537,109.536 -60.398,0 -109.536,-49.137 -109.536,-109.536 0,-1.581 0.041,-3.152 0.108,-4.718 l 59.642,0.267 c -0.13,1.468 -0.209,2.95 -0.209,4.451 0,27.568 22.428,49.996 49.995,49.996 27.568,0 49.996,-22.428 49.996,-49.996 0,-15.181 -6.81,-28.793 -17.527,-37.97 l -66.233,-66.234 c 0.067,-0.022 0.136,-0.04 0.202,-0.061 l -230.112,-230.196 39,-45 L 0.037,-0.036 Z m 111.946,-180.502 h -150.54 l 93.396,93.394 c 10.735,-35.995 30.696,-68.048 57.144,-93.394 m 431.963,409.917 v 59.541 H 164.305 L 117.342,158.357 c -31.541,76.561 -106.952,130.6 -194.759,130.6 -116.09,0 -210.537,-94.447 -210.537,-210.538 0,-1.727 0.028,-3.45 0.07,-5.17 l 59.568,0.267 c -0.053,1.63 -0.097,3.263 -0.097,4.903 0,83.26 67.736,150.997 150.996,150.997 83.26,0 150.997,-67.737 150.997,-150.997 0,-25.718 -6.412,-50.56 -18.646,-72.742 L 54.918,5.688 C 52.644,1.546 50.144,-2.504 47.453,-6.461 47.116,-6.956 46.79,-7.457 46.446,-7.949 41.443,-15.122 35.749,-21.956 29.354,-28.351 l -211.692,-211.692 h 442.247 c 118.001,0 214,95.999 214,213.999 0,118 -95.999,213.999 -214,213.999 h -24.352 l -21.411,-59.541 h 45.763 c 85.169,0 154.459,-69.289 154.459,-154.458 0,-85.169 -69.29,-154.458 -154.459,-154.458 -85.168,0 -154.457,69.289 -154.457,154.458 h -0.065 c 9.645,16.822 16.859,34.774 21.502,53.457 h 133.02 c 29.476,0 53.458,-23.981 53.458,-53.457 0,-29.476 -23.982,-53.457 -53.458,-53.457 -29.476,0 -53.457,23.981 -53.457,53.457 h -59.54 c 0,-62.308 50.691,-112.998 112.997,-112.998 62.308,0 112.999,50.69 112.999,112.998 0,62.307 -50.691,112.998 -112.999,112.998 H 154.938 l 51.23,142.461 z" style="fill:#001f66;fill-opacity:1;fill-rule:nonzero;stroke:none" transform="matrix(0.35277776,0,0,-0.35277776,69.282114,234.40555)" clip-path="url(#clipPath10)"></path><path id="path11" d="m 1334,650.975 h 94 v 45.398 h -94 z" style="fill:#001f66;fill-opacity:1;fill-rule:nonzero;stroke:none" transform="matrix(0.35277776,0,0,-0.35277776,-246.8389,501.12084)" clip-path="url(#clipPath12)"></path><path id="path13" d="m 1328,783.928 h 100 v 45.392 h -100 z" style="fill:#001f66;fill-opacity:1;fill-rule:nonzero;stroke:none" transform="matrix(0.35277776,0,0,-0.35277776,-246.8389,501.12084)" clip-path="url(#clipPath14)"></path><path id="path15" d="M 770,696.374 H 542 v -45.398 h 228 z" style="fill:#001f66;fill-opacity:1;fill-rule:nonzero;stroke:none" transform="matrix(0.35277776,0,0,-0.35277776,-246.8389,501.12084)" clip-path="url(#clipPath16)"></path><path id="path17" d="M 769,829.32 H 542 v -45.392 h 227 z" style="fill:#001f66;fill-opacity:1;fill-rule:nonzero;stroke:none" transform="matrix(0.35277776,0,0,-0.35277776,-246.8389,501.12084)" clip-path="url(#clipPath18)"></path><path id="path19" d="M 0,0 C -1.304,1.076 -2.722,2.027 -4.228,2.786 -31.663,16.819 -53.411,38.261 -70.601,64.345 L -105.19,34.712 c 18.531,-26.995 41.555,-50 70.095,-66.746 v -521.52 c 0,-32.184 -26.183,-58.367 -58.372,-58.367 h -317.776 c -17.885,0 -32.43,14.54 -32.43,32.429 h -45.392 c 0,-17.889 -14.545,-32.429 -32.424,-32.429 H -839.27 c -32.185,0 -58.368,26.183 -58.368,58.367 v 85.222 l -45.398,-20.156 v -65.066 c 0,-57.216 46.549,-103.765 103.766,-103.765 h 317.781 c 21.518,0 41.021,8.78 55.121,22.944 14.102,-14.164 33.607,-22.944 55.125,-22.944 h 317.776 c 57.22,0 103.765,46.549 103.765,103.765 V -22.738 C 10.298,-13.895 6.448,-5.397 0,0" style="fill:#001f66;fill-opacity:1;fill-rule:nonzero;stroke:none" transform="matrix(0.35277776,0,0,-0.35277776,269.35852,125.00256)" clip-path="url(#clipPath20)"></path><path id="path21" d="m 0,0 h 408.85 c 27.932,0 50.575,22.643 50.575,50.575 v 80.85 C 459.425,159.357 436.782,182 408.85,182 H 0 c -27.932,0 -50.575,-22.643 -50.575,-50.575 V 50.575 C -50.575,22.643 -27.932,0 0,0" style="fill:#ffffff;fill-opacity:1;fill-rule:nonzero;stroke:none" transform="matrix(0.35277776,0,0,-0.35277776,32.7639,122.23751)" clip-path="url(#clipPath22)"></path><path id="path23" d="m 0,0 c -24.027,0 -43.575,-19.547 -43.575,-43.575 v -80.85 C -43.575,-148.453 -24.027,-168 0,-168 h 408.851 c 24.027,0 43.574,19.547 43.574,43.575 v 80.85 C 452.425,-19.547 432.878,0 408.851,0 Z M 408.851,-182 H 0 c -31.747,0 -57.575,25.828 -57.575,57.575 v 80.85 C -57.575,-11.828 -31.747,14 0,14 h 408.851 c 31.746,0 57.574,-25.828 57.574,-57.575 v -80.85 c 0,-31.747 -25.828,-57.575 -57.574,-57.575" style="fill:#001f66;fill-opacity:1;fill-rule:nonzero;stroke:none" transform="matrix(0.35277776,0,0,-0.35277776,32.763847,60.501379)" clip-path="url(#clipPath24)"></path><path id="path25" d="M 0,0 -36.193,63.026 V 4.68 c 0,-5.46 -5.149,-10.14 -11.077,-10.14 -6.084,0 -10.764,4.68 -10.764,10.14 v 92.044 c 0,6.084 4.837,10.608 11.388,10.608 4.212,0 8.425,-2.34 10.609,-5.772 13.885,-24.025 21.841,-38.222 36.193,-63.339 v 58.971 c 0,5.46 5.149,10.14 11.076,10.14 6.084,0 10.765,-4.68 10.765,-10.14 V 5.148 C 21.997,-0.624 17.316,-5.46 10.453,-5.46 6.396,-5.46 2.028,-3.276 0,0" style="fill:#ff6600;fill-opacity:1;fill-rule:nonzero;stroke:none" transform="matrix(0.35277776,0,0,-0.35277776,55.936743,108.21991)" clip-path="url(#clipPath26)"></path><path id="path27" d="m 0,0 c 0,5.304 4.836,9.984 10.921,9.984 5.928,0 10.92,-4.68 10.92,-9.984 v -92.824 c 0,-5.303 -4.992,-9.984 -10.92,-9.984 -6.085,0 -10.921,4.681 -10.921,9.984 z" style="fill:#ff6600;fill-opacity:1;fill-rule:nonzero;stroke:none" transform="matrix(0.35277776,0,0,-0.35277776,69.970004,73.877839)" clip-path="url(#clipPath28)"></path><path id="path29" d="m 0,0 v -27.146 h 17.473 c 10.297,0 15.444,5.149 15.444,13.261 C 32.917,-4.992 26.677,0 18.409,0 Z m 17.94,19.969 c 5.461,0 12.013,3.744 12.013,12.168 0,5.928 -2.807,11.232 -10.92,11.232 H 0 v -23.4 z M -9.672,-46.958 c -6.864,0 -12.169,5.148 -12.169,11.232 v 87.52 c 0,6.396 5.616,11.232 12.169,11.232 h 26.364 c 23.402,0 35.102,-14.976 35.102,-30.577 0,-10.921 -7.02,-17.629 -16.381,-22.153 9.673,-3.9 19.346,-10.92 19.346,-24.493 0,-18.252 -14.665,-32.761 -38.69,-32.761 z" style="fill:#ff6600;fill-opacity:1;fill-rule:nonzero;stroke:none" transform="matrix(0.35277776,0,0,-0.35277776,91.818449,93.085107)" clip-path="url(#clipPath30)"></path><path id="path31" d="M 0,0 C -5.772,0 -10.921,4.681 -10.921,10.141 V 46.49 H -44.15 V 10.141 C -44.15,4.681 -49.143,0 -55.07,0 -61.154,0 -65.991,4.681 -65.991,10.141 v 92.667 c 0,5.304 4.837,9.984 10.921,9.984 5.927,0 10.92,-4.68 10.92,-9.984 V 66.459 h 33.229 v 36.349 c 0,5.304 5.149,9.984 10.921,9.984 5.771,0 10.92,-4.68 10.92,-9.984 V 10.141 C 10.92,4.681 5.928,0 0,0" style="fill:#ff6600;fill-opacity:1;fill-rule:nonzero;stroke:none" transform="matrix(0.35277776,0,0,-0.35277776,138.87192,110.14626)" clip-path="url(#clipPath32)"></path><path id="path33" d="m 0,0 c 1.561,4.368 6.553,7.333 10.608,7.333 6.397,0 11.233,-4.057 11.233,-9.985 0,-0.78 -0.155,-2.652 -0.468,-3.432 L -9.048,-94.852 c -2.184,-6.24 -5.305,-10.608 -12.793,-10.608 -7.488,0 -10.608,4.524 -12.636,10.608 l -30.421,88.768 c -0.312,0.78 -0.468,2.652 -0.468,3.432 0,5.928 5.148,9.985 11.232,9.985 3.744,0 8.737,-2.809 10.296,-7.333 l 19.19,-60.218 c 1.404,-4.524 2.183,-10.452 2.807,-15.289 0.624,4.837 1.404,10.765 2.809,15.289 z" style="fill:#ff6600;fill-opacity:1;fill-rule:nonzero;stroke:none" transform="matrix(0.35277776,0,0,-0.35277776,169.41473,72.942299)" clip-path="url(#clipPath34)"></path><path id="path35" d="m 0,0 c 0,-13.343 -4.74,-21.419 -20.365,-21.419 -3.336,0 -10.096,0.352 -10.096,6.057 0,3.511 3.248,5.531 5.706,5.531 2.02,0 3.16,-0.527 5.356,-0.527 5.88,0 7.11,3.95 7.11,10.358 v 36.431 c 0,3.072 2.633,5.618 6.144,5.618 3.249,0 6.145,-2.634 6.145,-5.618 z" style="fill:#001f66;fill-opacity:1;fill-rule:nonzero;stroke:none" transform="matrix(0.35277776,0,0,-0.35277776,190.09049,325.15636)" clip-path="url(#clipPath36)"></path><path id="path37" d="M 0,0 C -0.79,2.545 -1.229,5.881 -1.58,8.603 -1.932,5.881 -2.37,2.545 -3.16,0 L -7.812,-15.012 H 4.477 Z m -13.958,-33.885 c -0.878,-2.546 -3.687,-4.126 -5.794,-4.126 -3.423,0 -6.32,2.282 -6.32,5.618 0,0.439 0.088,1.493 0.263,1.932 L -8.69,19.487 c 1.14,3.424 2.896,5.97 7.11,5.97 4.214,0 5.969,-2.458 7.198,-5.97 l 17.118,-49.948 c 0.175,-0.439 0.263,-1.493 0.263,-1.932 0,-3.336 -2.721,-5.618 -6.32,-5.618 -2.283,0 -5.092,1.668 -5.969,4.126 l -3.073,8.866 h -18.698 z" style="fill:#001f66;fill-opacity:1;fill-rule:nonzero;stroke:none" transform="matrix(0.35277776,0,0,-0.35277776,201.11478,319.30314)" clip-path="url(#clipPath38)"></path><path id="path39" d="M 0,0 C -0.79,2.545 -1.229,5.881 -1.58,8.603 -1.932,5.881 -2.37,2.545 -3.16,0 L -7.812,-15.012 H 4.477 Z m -13.958,-33.885 c -0.878,-2.546 -3.687,-4.126 -5.794,-4.126 -3.423,0 -6.32,2.282 -6.32,5.618 0,0.439 0.088,1.493 0.263,1.932 L -8.69,19.487 c 1.14,3.424 2.896,5.97 7.11,5.97 4.214,0 5.969,-2.458 7.198,-5.97 l 17.118,-49.948 c 0.175,-0.439 0.263,-1.493 0.263,-1.932 0,-3.336 -2.721,-5.618 -6.32,-5.618 -2.283,0 -5.092,1.668 -5.969,4.126 l -3.073,8.866 h -18.698 z" style="fill:#001f66;fill-opacity:1;fill-rule:nonzero;stroke:none" transform="matrix(0.35277776,0,0,-0.35277776,220.03492,319.30314)" clip-path="url(#clipPath40)"></path><path id="path41" d="m 0,0 h -9.305 v -14.572 h 9.832 c 6.057,0 9.305,2.546 9.305,7.11 C 9.832,-3.775 7.988,0 0,0 m 9.92,-24.316 12.026,-18.083 c 2.897,-4.39 -1.404,-9.042 -5.354,-9.042 -2.196,0 -4.038,0.965 -5.18,2.72 l -14.748,23.088 h -5.969 v -20.102 c 0,-3.073 -2.897,-5.794 -6.232,-5.794 -3.248,0 -6.058,2.633 -6.058,5.794 V 4.828 c 0,3.423 3.073,6.32 6.672,6.32 H 0.352 c 16.502,0 21.77,-9.392 21.77,-18.61 0,-8.69 -4.653,-14.396 -12.202,-16.854" style="fill:#001f66;fill-opacity:1;fill-rule:nonzero;stroke:none" transform="matrix(0.35277776,0,0,-0.35277776,238.02553,314.53413)" clip-path="url(#clipPath42)"></path></g></svg> 