<?xml version="1.0" encoding="UTF-8" standalone="no"?>
<!-- Generator: Adobe Illustrator 13.0.1, SVG Export Plug-In . SVG Version: 6.00 Build 14948)  -->

<svg
   xmlns:dc="http://purl.org/dc/elements/1.1/"
   xmlns:cc="http://creativecommons.org/ns#"
   xmlns:rdf="http://www.w3.org/1999/02/22-rdf-syntax-ns#"
   xmlns:svg="http://www.w3.org/2000/svg"
   xmlns="http://www.w3.org/2000/svg"
   xmlns:sodipodi="http://sodipodi.sourceforge.net/DTD/sodipodi-0.dtd"
   xmlns:inkscape="http://www.inkscape.org/namespaces/inkscape"
   version="1.1"
   id="Laag_1"
   x="0px"
   y="0px"
   width="509.19601"
   height="133.582"
   viewBox="0 0 509.196 133.582"
   enable-background="new 0 0 509.196 125.582"
   xml:space="preserve"
   sodipodi:docname="logo2.svg"
   inkscape:version="0.92.4 (5da689c313, 2019-01-14)"><metadata
   id="metadata81"><rdf:RDF><cc:Work
       rdf:about=""><dc:format>image/svg+xml</dc:format><dc:type
         rdf:resource="http://purl.org/dc/dcmitype/StillImage" /><dc:title></dc:title></cc:Work></rdf:RDF></metadata><defs
   id="defs79" /><sodipodi:namedview
   pagecolor="#ffffff"
   bordercolor="#666666"
   borderopacity="1"
   objecttolerance="10"
   gridtolerance="10"
   guidetolerance="10"
   inkscape:pageopacity="0"
   inkscape:pageshadow="2"
   inkscape:window-width="1920"
   inkscape:window-height="1017"
   id="namedview77"
   showgrid="false"
   inkscape:pagecheckerboard="true"
   inkscape:zoom="1.9830251"
   inkscape:cx="152.59031"
   inkscape:cy="130.2677"
   inkscape:window-x="1912"
   inkscape:window-y="-8"
   inkscape:window-maximized="1"
   inkscape:current-layer="g74" />
<g
   id="g74"
   transform="translate(0,7.9999962)">
	<path
   d="m 48.608,66.836 h 2.273 c 2.778,0 6.298,-0.098 6.298,-3.755 0,-3.014 -3.013,-3.568 -6.298,-3.568 H 48.608 Z M 39.99,53.404 h 15.383 c 5.747,0 10.423,2.583 10.423,8.149 0,4.311 -2.042,7.179 -6.207,8.156 v 0.09 c 2.78,0.746 2.964,3.196 4.586,7.134 l 3.149,8.806 H 58.338 L 56.486,79.898 C 54.724,74.346 53.609,72.95 50.414,72.95 H 48.608 V 85.739 H 39.99 Z"
   id="path2"
   inkscape:connector-curvature="0"
   style="fill:#ffffff" />
	<polygon
   points="94.744,80.304 81.354,80.304 81.354,87.623 96.042,87.623 96.042,93.739 72.736,93.739 72.736,61.404 95.529,61.404 95.529,67.513 81.354,67.513 81.354,74.193 94.744,74.193 "
   id="polygon4"
   style="fill:#ffffff"
   transform="translate(0,-8)" />
	<path
   d="m 111.736,79.346 h 3.334 c 6.44,0 10.054,-3.338 10.054,-9.772 0,-6.443 -3.752,-9.781 -10.054,-9.781 h -3.334 z m -8.619,-25.942 h 11.771 c 11.256,0 19.13,3.513 19.13,16.029 0,12.093 -8.106,16.306 -19.13,16.306 h -11.771 z"
   id="path6"
   inkscape:connector-curvature="0"
   style="fill:#ffffff" />
	<path
   d="m 148.068,79.346 h 3.34 c 6.441,0 10.051,-3.338 10.051,-9.772 0,-6.443 -3.751,-9.781 -10.051,-9.781 h -3.34 z m -8.619,-25.942 h 11.77 c 11.255,0 19.133,3.513 19.133,16.029 0,12.093 -8.103,16.306 -19.133,16.306 h -11.77 z"
   id="path8"
   inkscape:connector-curvature="0"
   style="fill:#ffffff" />
	<rect
   x="176.26801"
   y="53.403999"
   width="8.6090002"
   height="32.334999"
   id="rect10"
   style="fill:#ffffff" />
	<polygon
   points="222.33,93.739 211.63,93.739 200.32,71.636 200.23,71.636 200.512,93.739 192.587,93.739 192.587,61.404 203.571,61.404 214.5,83.357 214.593,83.357 214.455,61.404 222.33,61.404 "
   id="polygon12"
   style="fill:#ffffff"
   transform="translate(0,-8)" />
	<path
   d="m 335.74,66.836 h 2.264 c 2.786,0 6.311,-0.098 6.311,-3.755 0,-3.014 -3.013,-3.568 -6.311,-3.568 h -2.264 z m -8.609,-13.432 h 15.373 c 5.745,0 10.424,2.583 10.424,8.149 0,4.311 -2.037,7.179 -6.211,8.156 v 0.09 c 2.781,0.746 2.972,3.196 4.595,7.134 l 3.149,8.806 h -8.988 l -1.858,-5.841 c -1.752,-5.552 -2.867,-6.948 -6.069,-6.948 h -1.805 v 12.789 h -8.609 V 53.404 Z"
   id="path14"
   inkscape:connector-curvature="0"
   style="fill:#ffffff" />
	<rect
   x="360.51501"
   y="53.403999"
   width="8.618"
   height="32.334999"
   id="rect16"
   style="fill:#ffffff" />
	<path
   d="m 406.373,84.813 c -5.471,1.384 -9.541,1.482 -12.519,1.482 -8.606,0 -18.568,-4.357 -18.568,-16.586 0,-12.19 8.563,-16.866 20.431,-16.866 2.125,0 6.625,0.231 9.771,1.438 l -0.692,7.038 c -2.685,-1.568 -5.838,-2.081 -7.878,-2.081 -6.998,0 -12.745,2.917 -12.745,10.471 0,6.34 4.492,10.188 10.803,10.188 1.154,0 2.27,-0.19 3.059,-0.553 V 72.95 h -5.056 v -6.114 h 13.395 v 17.977 z"
   id="path18"
   inkscape:connector-curvature="0"
   style="fill:#ffffff" />
	<path
   d="m 428.054,60.067 h -0.092 l -4.168,12.653 h 8.117 z m -5.284,-6.663 h 10.576 L 445.8,85.739 h -9.445 l -2.409,-6.904 H 421.8 l -2.546,6.904 h -8.755 z"
   id="path20"
   inkscape:connector-curvature="0"
   style="fill:#ffffff" />
	<path
   d="m 458.715,79.346 h 3.332 c 6.443,0 10.058,-3.338 10.058,-9.772 0,-6.443 -3.758,-9.781 -10.058,-9.781 h -3.332 z M 450.1,53.404 h 11.762 c 11.265,0 19.136,3.513 19.136,16.029 0,12.093 -8.108,16.306 -19.136,16.306 H 450.1 Z"
   id="path22"
   inkscape:connector-curvature="0"
   style="fill:#ffffff" />
	<polygon
   points="507.901,80.304 494.51,80.304 494.51,87.623 509.196,87.623 509.196,93.739 485.893,93.739 485.893,61.404 508.691,61.404 508.691,67.513 494.51,67.513 494.51,74.193 507.901,74.193 "
   id="polygon24"
   style="fill:#ffffff"
   transform="translate(0,-8)" />
	<path
   d="m 258.361,84.813 c -5.471,1.384 -9.548,1.482 -12.511,1.482 -8.617,0 -18.577,-4.357 -18.577,-16.586 0,-12.19 8.567,-16.866 20.427,-16.866 2.135,0 6.63,0.231 9.78,1.438 l -0.697,7.038 c -2.684,-1.568 -5.831,-2.081 -7.869,-2.081 -7.002,0 -12.747,2.917 -12.747,10.471 0,6.34 4.496,10.188 10.794,10.188 1.16,0 2.277,-0.19 3.056,-0.553 V 72.95 h -5.046 v -6.114 h 13.39 z"
   id="path26"
   inkscape:connector-curvature="0"
   style="fill:#ffffff" />
	<path
   d="m 303.919,79.623 h 2.55 c 3.155,0 6.439,-0.461 6.439,-3.755 0,-3.522 -3.375,-3.85 -6.346,-3.85 h -2.644 v 7.605 z m 0,-13.43 h 2.415 c 2.826,0 5.752,-0.704 5.752,-3.441 0,-2.96 -2.789,-3.239 -5.655,-3.239 h -2.512 z m -8.613,-12.789 h 14.875 c 6.024,0 10.516,2.646 10.516,8.193 0,4.077 -2.083,6.354 -5.694,7.559 v 0.087 c 4.31,0.88 6.525,3.202 6.525,7.138 0,7.732 -6.809,9.358 -12.598,9.358 h -13.624 z"
   id="path28"
   inkscape:connector-curvature="0"
   style="fill:#ffffff" />
	<path
   d="m 265.836,77.803 c 2.213,1.216 5.295,2.144 8.843,2.147 2.714,0 5.301,-0.555 5.301,-3.164 0.011,-6.061 -15.2,-2.241 -15.196,-14.069 0.015,-7.83 7.571,-9.971 14.024,-9.967 3.088,0 6.129,0.465 8.287,1.207 l -0.558,6.71 c -2.205,-1.025 -4.694,-1.492 -7.137,-1.492 -2.162,0 -5.758,0.19 -5.765,3.027 0,5.266 15.201,1.728 15.187,13.469 -0.012,8.436 -7.004,10.71 -14.146,10.71 -3.004,0 -6.731,-0.465 -9.589,-1.396 z"
   id="path30"
   inkscape:connector-curvature="0"
   style="fill:#ffffff" />
	<path
   d="m 48.608,66.836 h 2.273 c 2.778,0 6.298,-0.098 6.298,-3.755 0,-3.014 -3.013,-3.568 -6.298,-3.568 H 48.608 Z M 39.99,53.404 h 15.383 c 5.747,0 10.423,2.583 10.423,8.149 0,4.311 -2.042,7.179 -6.207,8.156 v 0.09 c 2.78,0.746 2.964,3.196 4.586,7.134 l 3.149,8.806 H 58.338 L 56.486,79.898 C 54.724,74.346 53.609,72.95 50.414,72.95 H 48.608 V 85.739 H 39.99 Z"
   id="path32"
   inkscape:connector-curvature="0"
   style="fill:#ffffff" />
	<polygon
   points="94.744,80.304 81.354,80.304 81.354,87.623 96.042,87.623 96.042,93.739 72.736,93.739 72.736,61.404 95.529,61.404 95.529,67.513 81.354,67.513 81.354,74.193 94.744,74.193 "
   id="polygon34"
   style="fill:#ffffff"
   transform="translate(0,-8)" />
	<path
   d="m 111.736,79.346 h 3.334 c 6.44,0 10.054,-3.338 10.054,-9.772 0,-6.443 -3.752,-9.781 -10.054,-9.781 h -3.334 z m -8.619,-25.942 h 11.771 c 11.256,0 19.13,3.513 19.13,16.029 0,12.093 -8.106,16.306 -19.13,16.306 h -11.771 z"
   id="path36"
   inkscape:connector-curvature="0"
   style="fill:#ffffff" />
	<path
   d="m 148.068,79.346 h 3.34 c 6.441,0 10.051,-3.338 10.051,-9.772 0,-6.443 -3.751,-9.781 -10.051,-9.781 h -3.34 z m -8.619,-25.942 h 11.77 c 11.255,0 19.133,3.513 19.133,16.029 0,12.093 -8.103,16.306 -19.133,16.306 h -11.77 z"
   id="path38"
   inkscape:connector-curvature="0"
   style="fill:#ffffff" />
	<rect
   x="176.26801"
   y="53.403999"
   width="8.6090002"
   height="32.334999"
   id="rect40"
   style="fill:#ffffff" />
	<polygon
   points="222.33,93.739 211.63,93.739 200.32,71.636 200.23,71.636 200.512,93.739 192.587,93.739 192.587,61.404 203.571,61.404 214.5,83.357 214.593,83.357 214.455,61.404 222.33,61.404 "
   id="polygon42"
   style="fill:#ffffff"
   transform="translate(0,-8)" />
	<path
   d="m 335.74,66.836 h 2.264 c 2.786,0 6.311,-0.098 6.311,-3.755 0,-3.014 -3.013,-3.568 -6.311,-3.568 h -2.264 z m -8.609,-13.432 h 15.373 c 5.745,0 10.424,2.583 10.424,8.149 0,4.311 -2.037,7.179 -6.211,8.156 v 0.09 c 2.781,0.746 2.972,3.196 4.595,7.134 l 3.149,8.806 h -8.988 l -1.858,-5.841 c -1.752,-5.552 -2.867,-6.948 -6.069,-6.948 h -1.805 v 12.789 h -8.609 V 53.404 Z"
   id="path44"
   inkscape:connector-curvature="0"
   style="fill:#ffffff" />
	<rect
   x="360.51501"
   y="53.403999"
   width="8.618"
   height="32.334999"
   id="rect46"
   style="fill:#ffffff" />
	<path
   d="m 406.373,84.813 c -5.471,1.384 -9.541,1.482 -12.519,1.482 -8.606,0 -18.568,-4.357 -18.568,-16.586 0,-12.19 8.563,-16.866 20.431,-16.866 2.125,0 6.625,0.231 9.771,1.438 l -0.692,7.038 c -2.685,-1.568 -5.838,-2.081 -7.878,-2.081 -6.998,0 -12.745,2.917 -12.745,10.471 0,6.34 4.492,10.188 10.803,10.188 1.154,0 2.27,-0.19 3.059,-0.553 V 72.95 h -5.056 v -6.114 h 13.395 v 17.977 z"
   id="path48"
   inkscape:connector-curvature="0"
   style="fill:#ffffff" />
	<path
   d="m 428.054,60.067 h -0.092 l -4.168,12.653 h 8.117 z m -5.284,-6.663 h 10.576 L 445.8,85.739 h -9.445 l -2.409,-6.904 H 421.8 l -2.546,6.904 h -8.755 z"
   id="path50"
   inkscape:connector-curvature="0"
   style="fill:#ffffff" />
	<path
   d="m 458.715,79.346 h 3.332 c 6.443,0 10.058,-3.338 10.058,-9.772 0,-6.443 -3.758,-9.781 -10.058,-9.781 h -3.332 z M 450.1,53.404 h 11.762 c 11.265,0 19.136,3.513 19.136,16.029 0,12.093 -8.108,16.306 -19.136,16.306 H 450.1 Z"
   id="path52"
   inkscape:connector-curvature="0"
   style="fill:#ffffff" />
	<polygon
   points="507.901,80.304 494.51,80.304 494.51,87.623 509.196,87.623 509.196,93.739 485.893,93.739 485.893,61.404 508.691,61.404 508.691,67.513 494.51,67.513 494.51,74.193 507.901,74.193 "
   id="polygon54"
   style="fill:#ffffff"
   transform="translate(0,-8)" />
	<path
   d="m 258.361,84.813 c -5.471,1.384 -9.548,1.482 -12.511,1.482 -8.617,0 -18.577,-4.357 -18.577,-16.586 0,-12.19 8.567,-16.866 20.427,-16.866 2.135,0 6.63,0.231 9.78,1.438 l -0.697,7.038 c -2.684,-1.568 -5.831,-2.081 -7.869,-2.081 -7.002,0 -12.747,2.917 -12.747,10.471 0,6.34 4.496,10.188 10.794,10.188 1.16,0 2.277,-0.19 3.056,-0.553 V 72.95 h -5.046 v -6.114 h 13.39 z"
   id="path56"
   inkscape:connector-curvature="0"
   style="fill:#ffffff" />
	<path
   d="m 265.836,77.803 c 2.213,1.216 5.295,2.144 8.843,2.147 2.714,0 5.301,-0.555 5.301,-3.164 0.011,-6.061 -15.2,-2.241 -15.196,-14.069 0.015,-7.83 7.571,-9.971 14.024,-9.967 3.088,0 6.129,0.465 8.287,1.207 l -0.558,6.71 c -2.205,-1.025 -4.694,-1.492 -7.137,-1.492 -2.162,0 -5.758,0.19 -5.765,3.027 0,5.266 15.201,1.728 15.187,13.469 -0.012,8.436 -7.004,10.71 -14.146,10.71 -3.004,0 -6.731,-0.465 -9.589,-1.396 z"
   id="path58"
   inkscape:connector-curvature="0"
   style="fill:#ffffff" />
	<path
   d="m 303.919,79.623 h 2.55 c 3.155,0 6.439,-0.461 6.439,-3.755 0,-3.522 -3.375,-3.85 -6.346,-3.85 h -2.644 v 7.605 z m 0,-13.43 h 2.415 c 2.826,0 5.752,-0.704 5.752,-3.441 0,-2.96 -2.789,-3.239 -5.655,-3.239 h -2.512 z m -8.613,-12.789 h 14.875 c 6.024,0 10.516,2.646 10.516,8.193 0,4.077 -2.083,6.354 -5.694,7.559 v 0.087 c 4.31,0.88 6.525,3.202 6.525,7.138 0,7.732 -6.809,9.358 -12.598,9.358 h -13.624 z"
   id="path60"
   inkscape:connector-curvature="0"
   style="fill:#ffffff" />
	<path
   d="M 16.274,55.188 H 0 C 2.025,70.842 14.417,83.235 30.071,85.26 V 68.983 C 23.284,67.315 17.945,61.977 16.274,55.188"
   id="path62"
   inkscape:connector-curvature="0"
   style="fill:#ffffff" />
	<path
   d="m 34.899,0.621 c -0.167,0.165 -0.439,0.165 -0.604,0 l -3.946,-3.948 c -0.166,-0.164 -0.166,-0.436 0,-0.601 l 3.946,-3.947 c 0.166,-0.167 0.438,-0.167 0.604,0 l 3.946,3.947 c 0.164,0.165 0.164,0.437 0,0.601 z"
   id="path64"
   inkscape:connector-curvature="0"
   style="fill:#ffffff" />
	<path
   d="m 49.419,17.892 c -0.235,0.092 -0.465,0.13 -0.795,0.13 h -0.006 c -0.814,0.063 -1.523,-0.359 -1.995,-0.628 -0.476,-0.265 -1.065,-0.527 -1.676,-0.527 -0.608,0 -1.302,0.298 -1.672,0.527 -0.76,0.474 -1.014,0.628 -1.69,0.628 -0.812,0.063 -1.52,-0.359 -1.994,-0.628 -0.474,-0.265 -1.065,-0.527 -1.676,-0.527 -0.608,0 -1.302,0.298 -1.672,0.527 -0.76,0.474 -1.014,0.628 -1.69,0.628 -0.678,0 -0.93,-0.154 -1.69,-0.628 -0.369,-0.229 -1.065,-0.527 -1.674,-0.527 -0.608,0 -1.2,0.263 -1.674,0.527 -0.476,0.269 -1.183,0.69 -1.993,0.628 -0.676,0 -0.93,-0.154 -1.692,-0.628 -0.369,-0.229 -1.062,-0.527 -1.672,-0.527 -0.608,0 -1.2,0.263 -1.675,0.527 -0.472,0.269 -1.182,0.69 -1.994,0.628 h -0.007 c -0.329,0 -0.559,-0.038 -0.797,-0.13 L 14.092,9.902 C 12.641,7.831 13.144,4.974 15.215,3.524 17.288,2.073 20.143,2.578 21.594,4.651 l 4.652,6.636 c 1.232,-0.303 2.477,-0.532 3.729,-0.7 V 6.992 c 0,-2.528 2.05,-4.577 4.579,-4.577 2.528,0 4.578,2.049 4.578,4.577 v 3.571 c 1.257,0.163 2.508,0.392 3.745,0.69 L 47.512,4.65 c 1.45,-2.073 4.307,-2.578 6.379,-1.127 2.071,1.45 2.572,4.307 1.123,6.378 z"
   id="path66"
   inkscape:connector-curvature="0"
   style="fill:#ffffff" />
	<path
   d="m 27.586,21.023 c -0.668,0 -0.922,-0.152 -1.675,-0.624 -0.366,-0.229 -1.055,-0.521 -1.659,-0.521 -0.603,0 -1.189,0.258 -1.659,0.521 -0.47,0.267 -1.174,0.685 -1.979,0.624 h -0.009 c -0.667,0 -0.92,-0.152 -1.674,-0.624 -0.224,-0.14 -0.573,-0.296 -0.946,-0.402 C 8.358,25.217 1.464,34.831 0,46.156 H 16.274 C 17.944,39.369 23.283,34.03 30.072,32.361 V 20.153 c -0.18,0.075 -0.353,0.159 -0.509,0.246 -0.47,0.267 -1.172,0.685 -1.977,0.624"
   id="path68"
   inkscape:connector-curvature="0"
   style="fill:#ffffff" />
	<path
   d="m 51.172,19.985 c -0.388,0.107 -0.753,0.271 -0.985,0.414 -0.753,0.472 -1.005,0.624 -1.676,0.624 h -0.009 c -0.803,0.061 -1.506,-0.357 -1.977,-0.624 -0.47,-0.263 -1.056,-0.521 -1.659,-0.521 -0.604,0 -1.292,0.292 -1.659,0.521 -0.753,0.472 -1.007,0.624 -1.676,0.624 -0.805,0.061 -1.506,-0.357 -1.977,-0.624 -0.14,-0.079 -0.294,-0.154 -0.452,-0.225 V 32.361 C 45.891,34.03 51.23,39.369 52.9,46.156 H 69.174 C 67.709,34.823 60.808,25.205 51.172,19.985"
   id="path70"
   inkscape:connector-curvature="0"
   style="fill:#ffffff" />
	<path
   d="M 43.522,125.207 V 110.27 l 9.234,14.938 h 4.641 V 102.302 H 53.1 v 15.297 l -9.375,-15.297 h -4.5 v 22.906 h 4.297 z m 27.282,-3.469 c -0.469,0.375 -1.047,0.563 -1.734,0.563 -1.011,0 -1.854,-0.361 -2.531,-1.086 -0.677,-0.724 -1.031,-1.736 -1.063,-3.039 h 11 c 0.063,-3.364 -0.62,-5.861 -2.047,-7.492 -1.427,-1.63 -3.375,-2.445 -5.844,-2.445 -2.198,0 -4.016,0.779 -5.453,2.336 -1.438,1.558 -2.156,3.711 -2.156,6.461 0,2.303 0.547,4.209 1.641,5.719 1.385,1.886 3.521,2.828 6.406,2.828 1.823,0 3.341,-0.419 4.555,-1.258 1.213,-0.838 2.102,-2.06 2.664,-3.664 l -4.375,-0.734 c -0.241,0.833 -0.595,1.436 -1.063,1.811 z m -5.25,-6.25 c -0.011,-1.197 0.297,-2.146 0.922,-2.844 0.625,-0.697 1.417,-1.047 2.375,-1.047 0.896,0 1.656,0.331 2.281,0.992 0.625,0.662 0.953,1.628 0.984,2.898 h -6.562 z m 29.718,-13.187 h -4.391 v 8.25 c -1.354,-1.541 -2.958,-2.313 -4.813,-2.313 -2.021,0 -3.693,0.732 -5.016,2.195 -1.323,1.464 -1.984,3.602 -1.984,6.414 0,2.75 0.68,4.894 2.039,6.43 1.359,1.537 2.992,2.305 4.898,2.305 0.938,0 1.867,-0.231 2.789,-0.695 0.922,-0.463 1.721,-1.169 2.398,-2.117 v 2.438 H 95.27 V 102.301 Z M 84.608,112.84 c 0.703,-0.828 1.575,-1.242 2.617,-1.242 1.073,0 1.953,0.42 2.641,1.258 0.688,0.839 1.031,2.211 1.031,4.117 0,1.709 -0.354,2.992 -1.063,3.852 -0.708,0.859 -1.568,1.289 -2.578,1.289 -1.271,0 -2.261,-0.572 -2.969,-1.719 -0.49,-0.791 -0.734,-2.072 -0.734,-3.844 0.001,-1.646 0.352,-2.883 1.055,-3.711 z m 23.539,8.898 c -0.469,0.375 -1.047,0.563 -1.734,0.563 -1.011,0 -1.854,-0.361 -2.531,-1.086 -0.677,-0.724 -1.031,-1.736 -1.063,-3.039 h 11 c 0.063,-3.364 -0.62,-5.861 -2.047,-7.492 -1.427,-1.63 -3.375,-2.445 -5.844,-2.445 -2.198,0 -4.016,0.779 -5.453,2.336 -1.438,1.558 -2.156,3.711 -2.156,6.461 0,2.303 0.547,4.209 1.641,5.719 1.385,1.886 3.521,2.828 6.406,2.828 1.823,0 3.341,-0.419 4.555,-1.258 1.213,-0.838 2.102,-2.06 2.664,-3.664 l -4.375,-0.734 c -0.24,0.833 -0.594,1.436 -1.063,1.811 z m -5.25,-6.25 c -0.011,-1.197 0.297,-2.146 0.922,-2.844 0.625,-0.697 1.417,-1.047 2.375,-1.047 0.896,0 1.656,0.331 2.281,0.992 0.625,0.662 0.953,1.628 0.984,2.898 h -6.562 z m 18.704,4.594 c 0,-2.822 0.122,-4.677 0.367,-5.563 0.245,-0.885 0.581,-1.497 1.008,-1.836 0.427,-0.338 0.948,-0.508 1.563,-0.508 0.635,0 1.323,0.24 2.063,0.719 l 1.359,-3.828 c -0.927,-0.552 -1.891,-0.828 -2.891,-0.828 -0.708,0 -1.341,0.178 -1.898,0.531 -0.558,0.354 -1.185,1.089 -1.883,2.203 v -2.359 h -4.078 v 16.594 h 4.391 v -5.125 z m 12.64,5.125 v -22.906 h -4.391 v 22.906 z m 8.844,-13.148 c 0.438,-0.307 1.047,-0.461 1.828,-0.461 1.156,0 1.942,0.18 2.359,0.539 0.417,0.359 0.625,0.961 0.625,1.805 v 0.438 c -0.792,0.334 -2.214,0.693 -4.266,1.078 -1.521,0.292 -2.685,0.633 -3.492,1.023 -0.808,0.391 -1.435,0.953 -1.883,1.688 -0.448,0.734 -0.672,1.57 -0.672,2.508 0,1.417 0.492,2.589 1.477,3.516 0.984,0.928 2.331,1.391 4.039,1.391 0.969,0 1.88,-0.182 2.734,-0.547 0.854,-0.364 1.656,-0.911 2.406,-1.641 0.031,0.084 0.083,0.256 0.156,0.516 0.167,0.573 0.307,1.006 0.422,1.297 h 4.344 c -0.386,-0.791 -0.648,-1.533 -0.789,-2.227 -0.141,-0.692 -0.211,-1.768 -0.211,-3.227 l 0.047,-5.125 c 0,-1.906 -0.195,-3.216 -0.586,-3.93 -0.391,-0.713 -1.065,-1.302 -2.023,-1.766 -0.958,-0.463 -2.417,-0.695 -4.375,-0.695 -2.156,0 -3.781,0.386 -4.875,1.156 -1.094,0.771 -1.865,1.959 -2.313,3.563 l 3.984,0.719 c 0.272,-0.772 0.626,-1.311 1.064,-1.618 z m 4.812,6.054 c 0,1.053 -0.058,1.766 -0.172,2.141 -0.167,0.573 -0.516,1.058 -1.047,1.453 -0.719,0.521 -1.474,0.781 -2.266,0.781 -0.708,0 -1.292,-0.224 -1.75,-0.672 -0.458,-0.447 -0.688,-0.979 -0.688,-1.594 0,-0.625 0.286,-1.141 0.859,-1.547 0.375,-0.25 1.172,-0.505 2.391,-0.766 1.219,-0.26 2.109,-0.484 2.672,-0.672 v 0.876 z m 23.735,-3.218 c 0,-1.281 -0.081,-2.266 -0.242,-2.953 -0.162,-0.688 -0.448,-1.302 -0.859,-1.844 -0.412,-0.541 -1.019,-0.986 -1.82,-1.336 -0.802,-0.349 -1.688,-0.523 -2.656,-0.523 -2.198,0 -4.021,0.938 -5.469,2.813 v -2.438 h -4.078 v 16.594 h 4.391 v -7.516 c 0,-1.854 0.112,-3.125 0.336,-3.813 0.224,-0.688 0.638,-1.239 1.242,-1.656 0.604,-0.416 1.286,-0.625 2.047,-0.625 0.594,0 1.102,0.146 1.523,0.438 0.422,0.292 0.727,0.701 0.914,1.227 0.188,0.526 0.281,1.686 0.281,3.477 v 8.469 h 4.391 v -10.314 z m 19.672,-12.594 h -4.391 v 8.25 c -1.354,-1.541 -2.958,-2.313 -4.813,-2.313 -2.021,0 -3.693,0.732 -5.016,2.195 -1.323,1.464 -1.984,3.602 -1.984,6.414 0,2.75 0.68,4.894 2.039,6.43 1.359,1.537 2.992,2.305 4.898,2.305 0.938,0 1.867,-0.231 2.789,-0.695 0.922,-0.463 1.721,-1.169 2.398,-2.117 v 2.438 h 4.078 V 102.301 Z M 180.64,112.84 c 0.703,-0.828 1.575,-1.242 2.617,-1.242 1.073,0 1.953,0.42 2.641,1.258 0.688,0.839 1.031,2.211 1.031,4.117 0,1.709 -0.354,2.992 -1.063,3.852 -0.708,0.859 -1.568,1.289 -2.578,1.289 -1.271,0 -2.261,-0.572 -2.969,-1.719 -0.49,-0.791 -0.734,-2.072 -0.734,-3.844 0,-1.646 0.352,-2.883 1.055,-3.711 z"
   id="path72"
   inkscape:connector-curvature="0"
   style="fill:#003697" />
</g>
</svg>